<svg width="519" height="894" viewBox="0 0 519 894" fill="none" xmlns="http://www.w3.org/2000/svg">
<path d="M254.345 433.08C254.345 442.093 239.135 446.6 208.715 446.6C195.758 446.6 183.365 444.347 171.535 439.84C160.268 435.333 142.523 420.123 118.3 394.21C94.0767 368.297 72.67 343.51 54.08 319.85L25.35 284.36C19.7167 278.727 16.9 271.967 16.9 264.08C16.9 255.63 20.28 247.18 27.04 238.73C34.3633 230.28 44.5033 218.168 57.46 202.395C70.98 186.058 90.9783 163.807 117.455 135.64C143.932 107.473 161.958 91.9816 171.535 89.165C179.422 84.6583 195.195 82.405 218.855 82.405C243.078 82.405 255.19 86.9117 255.19 95.925C255.19 101.558 250.402 108.318 240.825 116.205C237.445 119.585 232.657 124.092 226.46 129.725C220.827 134.795 210.405 144.935 195.195 160.145C180.548 174.792 167.592 188.03 156.325 199.86C126.468 231.97 111.54 253.095 111.54 263.235C111.54 272.812 122.243 289.993 143.65 314.78C165.057 339.003 186.463 361.255 207.87 381.535L239.98 411.955C249.557 419.842 254.345 426.883 254.345 433.08Z" fill="#5CE1E6"/>
<path d="M264.655 592.08C264.655 601.093 279.865 605.6 310.285 605.6C323.242 605.6 335.635 603.347 347.465 598.84C358.732 594.333 376.477 579.123 400.7 553.21C424.923 527.297 446.33 502.51 464.92 478.85L493.65 443.36C499.283 437.727 502.1 430.967 502.1 423.08C502.1 414.63 498.72 406.18 491.96 397.73C484.637 389.28 474.497 377.168 461.54 361.395C448.02 345.058 428.022 322.807 401.545 294.64C375.068 266.473 357.042 250.982 347.465 248.165C339.578 243.658 323.805 241.405 300.145 241.405C275.922 241.405 263.81 245.912 263.81 254.925C263.81 260.558 268.598 267.318 278.175 275.205C281.555 278.585 286.343 283.092 292.54 288.725C298.173 293.795 308.595 303.935 323.805 319.145C338.452 333.792 351.408 347.03 362.675 358.86C392.532 390.97 407.46 412.095 407.46 422.235C407.46 431.812 396.757 448.993 375.35 473.78C353.943 498.003 332.537 520.255 311.13 540.535L279.02 570.955C269.443 578.842 264.655 585.883 264.655 592.08Z" fill="#C1FF72"/>
</svg>
